<?xml version="1.0" encoding="UTF-8"?>
<svg xmlns="http://www.w3.org/2000/svg" viewBox="0 0 3598.56 1600.3" preserveAspectRatio="none">
    <g transform="translate(-12220.72 2825.71)">
        <rect fill="#0243BB" x="12220.72" y="-2825.71" width="3598.56" height="1600.3"/>
        <path fill="#FEFEFE" d="M12207.64 -1313.76c2060.69,146.3 3260.21,138.93 3598.56,-22.11 -925.16,-513.53 -2843.27,-478.87 -3598.56,22.11z"/>
        <path fill="#3E4095" d="M15819.28 -2812.79c-2399.04,0 -3598.56,0 -3598.56,0 1008.01,166.45 1512.01,249.68 1512.01,249.68 588.68,-119.65 1374.61,-431.43 1655.25,360.75 52.66,297.28 -19.68,547.68 -217.02,751.22 -418.91,333.71 -950.33,131.98 -1256.23,-20.87 -1183.6,170.23 -1694.01,259.52 -1694.01,259.52 2399.04,0 3598.56,0 3598.56,0 0,-1066.87 0,-1600.3 0,-1600.3z"/>
    </g>
</svg>
